:FULLY-SPECIFIED
:FORCE-ALL-JOINTS-BE-3DOF
:DEGREES
2344
root 0.676706 14.0754 -18.4184 922.719 -40.8474 163.853
lfemur -1.44552 -6.87687 1.41422
ltibia 30.2583 0 0
lfoot -12.0019 27.1067 0
ltoes -47.3479 0 0
rfemur -69.1194 -13.5523 12.1441
rtibia 79.2089 0 0
rfoot -10.0625 -16.7188 0
rtoes 6.3738 0 0
lowerback 19.9552 3.58402 -3.75942
upperback 0.455649 3.59918 -0.745038
thorax -10.9229 1.80593 0.293672
lowerneck -5.1009 -3.59667 -5.76472
upperneck 2.10832 -4.4177 1.21087
head 1.77775 -2.23909 1.27989
lclavicle -1.27491e-13 4.25641e-15 0
lhumerus -41.1603 -16.8522 86.7251
lradius 100.405 0 0
lwrist 54.1857 0 0
lhand -23.401 403.196 0
lfingers 7.12502 0 0
lthumb 3.05626 -662.767 0
rclavicle -1.27491e-13 4.25641e-15 0
rhumerus 50.2765 9.94539 -48.2657
rradius 45.2945 0 0
rwrist 7.69973 0 0
rhand -7.22733 -397.782 0
rfingers 7.12502 0 0
rthumb 18.6525 293.084 0
2345
root 0.670473 14.1003 -18.5749 923.467 -40.6518 163.141
lfemur -1.70778 -6.84414 1.35926
ltibia 30.5276 0 0
lfoot -11.9396 27.057 0
ltoes -47.2163 0 0
rfemur -69.0099 -13.4518 12.1899
rtibia 79.1959 0 0
rfoot -10.1077 -16.8459 0
rtoes 6.32648 0 0
lowerback 19.9744 3.57745 -3.70612
upperback 0.455376 3.60046 -0.734891
thorax -10.9325 1.80428 0.273942
lowerneck -5.114 -3.51721 -5.70272
upperneck 2.1277 -4.30785 1.13836
head 1.78499 -2.18554 1.25321
lclavicle -1.27417e-13 4.31577e-15 0
lhumerus -40.6025 -16.9705 86.4837
lradius 100.454 0 0
lwrist 53.7811 0 0
lhand -23.4924 403.17 0
lfingers 7.12502 0 0
lthumb 2.96805 -663.671 0
rclavicle -1.27417e-13 4.31577e-15 0
rhumerus 50.0604 10.2122 -48.3437
rradius 45.5832 0 0
rwrist 7.52668 0 0
rhand -7.16391 -397.783 0
rfingers 7.12502 0 0
rthumb 18.7135 293.089 0
2346
root 0.664239 14.1253 -18.7313 924.113 -40.4663 162.522
lfemur -1.92266 -6.80869 1.29792
ltibia 30.7616 0 0
lfoot -11.8931 27.0213 0
ltoes -47.1002 0 0
rfemur -68.9174 -13.371 12.2283
rtibia 79.1834 0 0
rfoot -10.1466 -16.9311 0
rtoes 6.28318 0 0
lowerback 19.982 3.57098 -3.66812
upperback 0.452591 3.59994 -0.726884
thorax -10.9387 1.80247 0.261215
lowerneck -5.12059 -3.45458 -5.65354
upperneck 2.14654 -4.22176 1.08236
head 1.79238 -2.14369 1.23234
lclavicle -1.2723e-13 4.34651e-15 0
lhumerus -40.1371 -17.076 86.2874
lradius 100.498 0 0
lwrist 53.4334 0 0
lhand -23.564 403.154 0
lfingers 7.12502 0 0
lthumb 2.89891 -664.142 0
rclavicle -1.2723e-13 4.34651e-15 0
rhumerus 49.8699 10.4305 -48.419
rradius 45.813 0 0
rwrist 7.39562 0 0
rhand -7.11868 -397.787 0
rfingers 7.12502 0 0
rthumb 18.757 293.089 0
2347
root 0.658006 14.1502 -18.8878 924.687 -40.2827 161.965
lfemur -2.10066 -6.76908 1.22774
ltibia 30.971 0 0
lfoot -11.8599 26.9978 0
ltoes -46.9944 0 0
rfemur -68.8376 -13.3061 12.2609
rtibia 79.1709 0 0
rfoot -10.1811 -16.9792 0
rtoes 6.24194 0 0
lowerback 19.9787 3.56435 -3.64339
upperback 0.447247 3.59767 -0.720614
thorax -10.9418 1.80045 0.25475
lowerneck -5.12112 -3.40565 -5.61473
upperneck 2.16567 -4.15509 1.04002
head 1.80023 -2.11144 1.21624
lclavicle -1.26926e-13 4.35074e-15 0
lhumerus -39.7417 -17.1734 86.1264
lradius 100.539 0 0
lwrist 53.1261 0 0
lhand -23.6195 403.148 0
lfingers 7.12502 0 0
lthumb 2.84536 -664.212 0
rclavicle -1.26926e-13 4.35074e-15 0
rhumerus 49.6961 10.6109 -48.4946
rradius 45.9955 0 0
rwrist 7.29979 0 0
rhand -7.08919 -397.795 0
rfingers 7.12502 0 0
rthumb 18.7853 293.084 0
2348
root 0.651773 14.1751 -19.0443 925.22 -40.0929 161.443
lfemur -2.25227 -6.72388 1.14631
ltibia 31.167 0 0
lfoot -11.8376 26.9846 0
ltoes -46.8933 0 0
rfemur -68.766 -13.2529 12.2898
rtibia 79.1577 0 0
rfoot -10.213 -16.9949 0
rtoes 6.2008 0 0
lowerback 19.965 3.55726 -3.62986
upperback 0.439297 3.59366 -0.715682
thorax -10.9422 1.79812 0.253806
lowerneck -5.11608 -3.36727 -5.58383
upperneck 2.18591 -4.10351 1.0085
head 1.80886 -2.08666 1.20386
lclavicle -1.26499e-13 4.33061e-15 0
lhumerus -39.3937 -17.2678 85.9912
lradius 100.579 0 0
lwrist 52.8429 0 0
lhand -23.6624 403.149 0
lfingers 7.12502 0 0
lthumb 2.8039 -663.914 0
rclavicle -1.26499e-13 4.33061e-15 0
rhumerus 49.5302 10.764 -48.574
rradius 46.1421 0 0
rwrist 7.23241 0 0
rhand -7.07301 -397.807 0
rfingers 7.12502 0 0
rthumb 18.8008 293.074 0
2349
root 0.64554 14.2001 -19.2007 925.742 -39.8886 160.925
lfemur -2.38796 -6.67166 1.0512
ltibia 31.3605 0 0
lfoot -11.8237 26.9797 0
ltoes -46.7918 0 0
rfemur -68.6981 -13.2076 12.3167
rtibia 79.1433 0 0
rfoot -10.2442 -16.9832 0
rtoes 6.15781 0 0
lowerback 19.9417 3.54946 -3.62549
upperback 0.428692 3.58795 -0.711685
thorax -10.9403 1.79543 0.257645
lowerneck -5.10591 -3.33629 -5.55838
upperneck 2.20806 -4.06266 0.984928
head 1.81856 -2.06725 1.19414
lclavicle -1.25945e-13 4.28821e-15 0
lhumerus -39.0709 -17.3638 85.872
lradius 100.62 0 0
lwrist 52.5672 0 0
lhand -23.6964 403.158 0
lfingers 7.12502 0 0
lthumb 2.77107 -663.28 0
rclavicle -1.25945e-13 4.28821e-15 0
rhumerus 49.3633 10.9006 -48.6604
rradius 46.2643 0 0
rwrist 7.18673 0 0
rhand -7.06769 -397.824 0
rfingers 7.12502 0 0
rthumb 18.8058 293.06 0
2350
root 0.639307 14.225 -19.3572 926.284 -39.6618 160.385
lfemur -2.51824 -6.61099 0.939979
ltibia 31.5624 0 0
lfoot -11.8158 26.9812 0
ltoes -46.6842 0 0
rfemur -68.6296 -13.1661 12.3434
rtibia 79.1273 0 0
rfoot -10.2765 -16.9487 0
rtoes 6.11102 0 0
lowerback 19.9095 3.54065 -3.62823
upperback 0.415387 3.58057 -0.708222
thorax -10.9365 1.7923 0.265525
lowerneck -5.09109 -3.30959 -5.53593
upperneck 2.23296 -4.02823 0.966467
head 1.82966 -2.05109 1.18603
lclavicle -1.25259e-13 4.22567e-15 0
lhumerus -38.7507 -17.4664 85.7593
lradius 100.663 0 0
lwrist 52.2828 0 0
lhand -23.7251 403.174 0
lfingers 7.12502 0 0
lthumb 2.74338 -662.341 0
rclavicle -1.25259e-13 4.22567e-15 0
rhumerus 49.1866 11.0313 -48.7571
rradius 46.3734 0 0
rwrist 7.15597 0 0
rhand -7.07079 -397.844 0
rfingers 7.12502 0 0
rthumb 18.8027 293.041 0
2351
root 0.633073 14.2499 -19.5137 926.875 -39.4041 159.791
lfemur -2.65358 -6.54044 0.810213
ltibia 31.7837 0 0
lfoot -11.8115 26.9872 0
ltoes -46.5654 0 0
rfemur -68.556 -13.1244 12.3719
rtibia 79.109 0 0
rfoot -10.3117 -16.8964 0
rtoes 6.05845 0 0
lowerback 19.8689 3.53055 -3.63602
upperback 0.399334 3.57154 -0.704891
thorax -10.931 1.78866 0.276706
lowerneck -5.07209 -3.284 -5.51401
upperneck 2.26141 -3.99586 0.950261
head 1.84246 -2.03607 1.17848
lclavicle -1.24436e-13 4.14511e-15 0
lhumerus -38.4107 -17.5804 85.6434
lradius 100.711 0 0
lwrist 51.9732 0 0
lhand -23.752 403.194 0
lfingers 7.12502 0 0
lthumb 2.71734 -661.132 0
rclavicle -1.24436e-13 4.14511e-15 0
rhumerus 48.9913 11.1667 -48.8673
rradius 46.481 0 0
rwrist 7.13336 0 0
rhand -7.07988 -397.868 0
rfingers 7.12502 0 0
rthumb 18.7939 293.018 0
